<mxfile host="app.diagrams.net" modified="2023-11-10T10:19:01.990Z" agent="Mozilla/5.0 (Windows NT 10.0; Win64; x64) AppleWebKit/537.36 (KHTML, like Gecko) Chrome/119.0.0.0 Safari/537.36" etag="gqt897blvMYn-qj2A8JF" version="22.1.0" type="device">
  <diagram name="Страница — 1" id="w7nwKDgzphSA5-qb6p-B">
    <mxGraphModel dx="2501" dy="1959" grid="1" gridSize="10" guides="1" tooltips="1" connect="1" arrows="1" fold="1" page="1" pageScale="1" pageWidth="827" pageHeight="1169" background="#ffffff" math="0" shadow="0">
      <root>
        <mxCell id="0" />
        <mxCell id="1" parent="0" />
        <mxCell id="XXbPpaF_I5bskj_yStH1-2" value="Выдача книги" style="rounded=0;whiteSpace=wrap;html=1;" parent="1" vertex="1">
          <mxGeometry x="170" y="230" width="400" height="250" as="geometry" />
        </mxCell>
        <mxCell id="XXbPpaF_I5bskj_yStH1-3" value="" style="endArrow=classic;html=1;rounded=0;entryX=0;entryY=0.04;entryDx=0;entryDy=0;entryPerimeter=0;" parent="1" edge="1">
          <mxGeometry width="50" height="50" relative="1" as="geometry">
            <mxPoint x="200" y="40" as="sourcePoint" />
            <mxPoint x="200" y="230" as="targetPoint" />
          </mxGeometry>
        </mxCell>
        <mxCell id="XXbPpaF_I5bskj_yStH1-4" value="" style="endArrow=classic;html=1;rounded=0;entryX=0;entryY=0.04;entryDx=0;entryDy=0;entryPerimeter=0;" parent="1" edge="1">
          <mxGeometry width="50" height="50" relative="1" as="geometry">
            <mxPoint x="310" y="40" as="sourcePoint" />
            <mxPoint x="310" y="230" as="targetPoint" />
          </mxGeometry>
        </mxCell>
        <mxCell id="XXbPpaF_I5bskj_yStH1-5" value="" style="endArrow=classic;html=1;rounded=0;entryX=0;entryY=0.04;entryDx=0;entryDy=0;entryPerimeter=0;" parent="1" edge="1">
          <mxGeometry width="50" height="50" relative="1" as="geometry">
            <mxPoint x="413" y="40" as="sourcePoint" />
            <mxPoint x="413" y="230" as="targetPoint" />
          </mxGeometry>
        </mxCell>
        <mxCell id="XXbPpaF_I5bskj_yStH1-6" value="" style="endArrow=classic;html=1;rounded=0;entryX=0;entryY=0.04;entryDx=0;entryDy=0;entryPerimeter=0;" parent="1" edge="1">
          <mxGeometry width="50" height="50" relative="1" as="geometry">
            <mxPoint x="520" y="40" as="sourcePoint" />
            <mxPoint x="520" y="230" as="targetPoint" />
          </mxGeometry>
        </mxCell>
        <mxCell id="XXbPpaF_I5bskj_yStH1-7" value="" style="endArrow=classic;html=1;rounded=0;" parent="1" edge="1">
          <mxGeometry width="50" height="50" relative="1" as="geometry">
            <mxPoint x="-80" y="240" as="sourcePoint" />
            <mxPoint x="167" y="240" as="targetPoint" />
          </mxGeometry>
        </mxCell>
        <mxCell id="XXbPpaF_I5bskj_yStH1-8" value="" style="endArrow=classic;html=1;rounded=0;" parent="1" edge="1">
          <mxGeometry width="50" height="50" relative="1" as="geometry">
            <mxPoint x="570" y="360" as="sourcePoint" />
            <mxPoint x="930" y="360" as="targetPoint" />
          </mxGeometry>
        </mxCell>
        <mxCell id="XXbPpaF_I5bskj_yStH1-9" value="" style="endArrow=classic;html=1;rounded=0;" parent="1" edge="1">
          <mxGeometry width="50" height="50" relative="1" as="geometry">
            <mxPoint x="-80" y="440" as="sourcePoint" />
            <mxPoint x="167" y="440" as="targetPoint" />
          </mxGeometry>
        </mxCell>
        <mxCell id="XXbPpaF_I5bskj_yStH1-11" value="" style="swimlane;startSize=0;fillColor=#e3c800;strokeColor=#B09500;fontColor=#000000;" parent="1" vertex="1">
          <mxGeometry x="-80" width="1010" height="730" as="geometry">
            <mxRectangle x="-80" width="50" height="40" as="alternateBounds" />
          </mxGeometry>
        </mxCell>
        <mxCell id="XXbPpaF_I5bskj_yStH1-69" value="NOODE" style="text;html=1;align=center;verticalAlign=middle;resizable=0;points=[];autosize=1;strokeColor=none;fillColor=none;" parent="XXbPpaF_I5bskj_yStH1-11" vertex="1">
          <mxGeometry y="680" width="70" height="30" as="geometry" />
        </mxCell>
        <mxCell id="XXbPpaF_I5bskj_yStH1-48" value="" style="endArrow=none;html=1;rounded=0;" parent="XXbPpaF_I5bskj_yStH1-11" edge="1">
          <mxGeometry width="50" height="50" relative="1" as="geometry">
            <mxPoint x="110" y="730" as="sourcePoint" />
            <mxPoint x="110" y="680" as="targetPoint" />
          </mxGeometry>
        </mxCell>
        <mxCell id="XXbPpaF_I5bskj_yStH1-70" value="" style="endArrow=none;html=1;rounded=0;" parent="XXbPpaF_I5bskj_yStH1-11" edge="1">
          <mxGeometry width="50" height="50" relative="1" as="geometry">
            <mxPoint x="720" y="730" as="sourcePoint" />
            <mxPoint x="720" y="680" as="targetPoint" />
          </mxGeometry>
        </mxCell>
        <mxCell id="XXbPpaF_I5bskj_yStH1-71" value="&lt;b&gt;&lt;font style=&quot;font-size: 14px;&quot;&gt;&amp;nbsp; &amp;nbsp; &amp;nbsp; &amp;nbsp; &amp;nbsp; &amp;nbsp; &amp;nbsp; &amp;nbsp; &amp;nbsp; &amp;nbsp; &amp;nbsp; &amp;nbsp; НАПИСАТЬ СТАТЬЮ&amp;nbsp;&amp;nbsp;&lt;/font&gt;&lt;/b&gt;" style="text;html=1;align=center;verticalAlign=middle;resizable=0;points=[];autosize=1;strokeColor=none;fillColor=none;" parent="XXbPpaF_I5bskj_yStH1-11" vertex="1">
          <mxGeometry x="260" y="680" width="270" height="30" as="geometry" />
        </mxCell>
        <mxCell id="XXbPpaF_I5bskj_yStH1-72" value="TITLE" style="text;html=1;align=center;verticalAlign=middle;resizable=0;points=[];autosize=1;strokeColor=none;fillColor=none;" parent="XXbPpaF_I5bskj_yStH1-11" vertex="1">
          <mxGeometry x="105" y="680" width="60" height="30" as="geometry" />
        </mxCell>
        <mxCell id="XXbPpaF_I5bskj_yStH1-73" value="" style="rounded=0;whiteSpace=wrap;html=1;" parent="XXbPpaF_I5bskj_yStH1-11" vertex="1">
          <mxGeometry x="940" y="710" width="70" height="20" as="geometry" />
        </mxCell>
        <mxCell id="XXbPpaF_I5bskj_yStH1-74" value="&amp;nbsp; &amp;nbsp; NUMBER" style="text;html=1;align=center;verticalAlign=middle;resizable=0;points=[];autosize=1;strokeColor=none;fillColor=none;" parent="XXbPpaF_I5bskj_yStH1-11" vertex="1">
          <mxGeometry x="700" y="680" width="90" height="30" as="geometry" />
        </mxCell>
        <mxCell id="XXbPpaF_I5bskj_yStH1-77" value="" style="endArrow=classic;html=1;rounded=0;entryX=0.078;entryY=1.014;entryDx=0;entryDy=0;entryPerimeter=0;" parent="XXbPpaF_I5bskj_yStH1-11" edge="1">
          <mxGeometry width="50" height="50" relative="1" as="geometry">
            <mxPoint x="400" y="680" as="sourcePoint" />
            <mxPoint x="401" y="484" as="targetPoint" />
          </mxGeometry>
        </mxCell>
        <mxCell id="XXbPpaF_I5bskj_yStH1-78" value="" style="endArrow=classic;html=1;rounded=0;entryX=0.078;entryY=1.014;entryDx=0;entryDy=0;entryPerimeter=0;" parent="XXbPpaF_I5bskj_yStH1-11" edge="1">
          <mxGeometry width="50" height="50" relative="1" as="geometry">
            <mxPoint x="520" y="680" as="sourcePoint" />
            <mxPoint x="521" y="484" as="targetPoint" />
          </mxGeometry>
        </mxCell>
        <mxCell id="XXbPpaF_I5bskj_yStH1-79" value="" style="endArrow=classic;html=1;rounded=0;entryX=0.078;entryY=1.014;entryDx=0;entryDy=0;entryPerimeter=0;" parent="XXbPpaF_I5bskj_yStH1-11" edge="1">
          <mxGeometry width="50" height="50" relative="1" as="geometry">
            <mxPoint x="620" y="680" as="sourcePoint" />
            <mxPoint x="621" y="484" as="targetPoint" />
          </mxGeometry>
        </mxCell>
        <mxCell id="XXbPpaF_I5bskj_yStH1-82" value="&amp;nbsp; &amp;nbsp; &amp;nbsp; &amp;nbsp; &amp;nbsp; &amp;nbsp;паспортные данные" style="text;html=1;align=center;verticalAlign=middle;resizable=0;points=[];autosize=1;strokeColor=none;fillColor=none;" parent="XXbPpaF_I5bskj_yStH1-11" vertex="1">
          <mxGeometry y="410" width="170" height="30" as="geometry" />
        </mxCell>
        <mxCell id="XXbPpaF_I5bskj_yStH1-87" value="Выданная книга" style="text;html=1;align=center;verticalAlign=middle;resizable=0;points=[];autosize=1;strokeColor=none;fillColor=none;" parent="XXbPpaF_I5bskj_yStH1-11" vertex="1">
          <mxGeometry x="790" y="330" width="110" height="30" as="geometry" />
        </mxCell>
        <mxCell id="XXbPpaF_I5bskj_yStH1-90" value="Оборудование" style="text;html=1;align=center;verticalAlign=middle;resizable=0;points=[];autosize=1;strokeColor=none;fillColor=none;" parent="XXbPpaF_I5bskj_yStH1-11" vertex="1">
          <mxGeometry x="520" y="498" width="110" height="30" as="geometry" />
        </mxCell>
        <mxCell id="XXbPpaF_I5bskj_yStH1-102" value="&amp;nbsp; &amp;nbsp; &amp;nbsp; &amp;nbsp; &amp;nbsp; &amp;nbsp; &amp;nbsp; &amp;nbsp; &amp;nbsp;История выдачи" style="text;html=1;align=center;verticalAlign=middle;resizable=0;points=[];autosize=1;strokeColor=none;fillColor=none;" parent="XXbPpaF_I5bskj_yStH1-11" vertex="1">
          <mxGeometry x="430" y="60" width="170" height="30" as="geometry" />
        </mxCell>
        <mxCell id="XXbPpaF_I5bskj_yStH1-103" value="&amp;nbsp; &amp;nbsp; &amp;nbsp; &amp;nbsp; &amp;nbsp; &amp;nbsp; &amp;nbsp; &amp;nbsp; &amp;nbsp; &amp;nbsp; &amp;nbsp; &amp;nbsp; &amp;nbsp; &amp;nbsp; &amp;nbsp; &amp;nbsp; нормативные требования" style="text;html=1;align=center;verticalAlign=middle;resizable=0;points=[];autosize=1;strokeColor=none;fillColor=none;" parent="XXbPpaF_I5bskj_yStH1-11" vertex="1">
          <mxGeometry x="494" y="60" width="270" height="30" as="geometry" />
        </mxCell>
        <mxCell id="XXbPpaF_I5bskj_yStH1-104" value="&amp;nbsp; &amp;nbsp; &amp;nbsp;требования к по" style="text;html=1;align=center;verticalAlign=middle;resizable=0;points=[];autosize=1;strokeColor=none;fillColor=none;" parent="XXbPpaF_I5bskj_yStH1-11" vertex="1">
          <mxGeometry x="364" y="60" width="130" height="30" as="geometry" />
        </mxCell>
        <mxCell id="XXbPpaF_I5bskj_yStH1-99" value="" style="endArrow=classic;html=1;rounded=0;entryX=-0.003;entryY=0.686;entryDx=0;entryDy=0;entryPerimeter=0;exitX=0.002;exitY=0.549;exitDx=0;exitDy=0;exitPerimeter=0;" parent="XXbPpaF_I5bskj_yStH1-11" edge="1">
          <mxGeometry width="50" height="50" relative="1" as="geometry">
            <mxPoint x="-1.4210854715202004e-14" y="364.5" as="sourcePoint" />
            <mxPoint x="246.78000000000017" y="365.23" as="targetPoint" />
          </mxGeometry>
        </mxCell>
        <mxCell id="XXbPpaF_I5bskj_yStH1-100" value="&amp;nbsp; &amp;nbsp; &amp;nbsp; &amp;nbsp; &amp;nbsp; &amp;nbsp; &amp;nbsp; &amp;nbsp; &amp;nbsp; &amp;nbsp; Читатель" style="text;html=1;align=center;verticalAlign=middle;resizable=0;points=[];autosize=1;strokeColor=none;fillColor=none;" parent="XXbPpaF_I5bskj_yStH1-11" vertex="1">
          <mxGeometry x="-30" y="340" width="140" height="30" as="geometry" />
        </mxCell>
        <mxCell id="XXbPpaF_I5bskj_yStH1-13" value="" style="endArrow=none;html=1;rounded=0;" parent="1" edge="1">
          <mxGeometry width="50" height="50" relative="1" as="geometry">
            <mxPoint x="80" as="sourcePoint" />
            <mxPoint x="80" y="-80" as="targetPoint" />
          </mxGeometry>
        </mxCell>
        <mxCell id="XXbPpaF_I5bskj_yStH1-14" value="" style="endArrow=none;html=1;rounded=0;" parent="1" edge="1">
          <mxGeometry width="50" height="50" relative="1" as="geometry">
            <mxPoint x="-80" y="-80" as="sourcePoint" />
            <mxPoint x="930" y="-80" as="targetPoint" />
          </mxGeometry>
        </mxCell>
        <mxCell id="XXbPpaF_I5bskj_yStH1-15" value="" style="endArrow=none;html=1;rounded=0;exitX=0;exitY=0;exitDx=0;exitDy=0;" parent="1" source="XXbPpaF_I5bskj_yStH1-11" edge="1">
          <mxGeometry width="50" height="50" relative="1" as="geometry">
            <mxPoint x="-140" y="20" as="sourcePoint" />
            <mxPoint x="-80" y="-80" as="targetPoint" />
          </mxGeometry>
        </mxCell>
        <mxCell id="XXbPpaF_I5bskj_yStH1-16" value="" style="endArrow=none;html=1;rounded=0;exitX=1;exitY=0;exitDx=0;exitDy=0;" parent="1" source="XXbPpaF_I5bskj_yStH1-11" edge="1">
          <mxGeometry width="50" height="50" relative="1" as="geometry">
            <mxPoint x="950" as="sourcePoint" />
            <mxPoint x="930" y="-80" as="targetPoint" />
          </mxGeometry>
        </mxCell>
        <mxCell id="XXbPpaF_I5bskj_yStH1-17" value="&amp;nbsp; &amp;nbsp; &amp;nbsp; USED AT:" style="text;html=1;align=center;verticalAlign=middle;resizable=0;points=[];autosize=1;strokeColor=none;fillColor=none;" parent="1" vertex="1">
          <mxGeometry x="-110" y="-82" width="100" height="30" as="geometry" />
        </mxCell>
        <mxCell id="XXbPpaF_I5bskj_yStH1-18" value="&amp;nbsp; &amp;nbsp; &amp;nbsp; &amp;nbsp; &amp;nbsp; &amp;nbsp; &amp;nbsp; &amp;nbsp; &amp;nbsp; &amp;nbsp; &amp;nbsp; AUTHOR: Книгов Егор&amp;nbsp;" style="text;html=1;align=center;verticalAlign=middle;resizable=0;points=[];autosize=1;strokeColor=none;fillColor=none;" parent="1" vertex="1">
          <mxGeometry x="5" y="-80" width="220" height="30" as="geometry" />
        </mxCell>
        <mxCell id="XXbPpaF_I5bskj_yStH1-19" value="&amp;nbsp; &amp;nbsp; &amp;nbsp; &amp;nbsp; &amp;nbsp; &amp;nbsp; &amp;nbsp; &amp;nbsp; &amp;nbsp; &amp;nbsp; &amp;nbsp; &amp;nbsp; &amp;nbsp; &amp;nbsp; &amp;nbsp; &amp;nbsp; &amp;nbsp; &amp;nbsp; &amp;nbsp; &amp;nbsp; &amp;nbsp; &amp;nbsp; &amp;nbsp; &amp;nbsp; &amp;nbsp; &amp;nbsp; &amp;nbsp; &amp;nbsp; &amp;nbsp; &amp;nbsp; &amp;nbsp; &amp;nbsp; &amp;nbsp; &amp;nbsp; &amp;nbsp; &amp;nbsp; &amp;nbsp; &amp;nbsp; &amp;nbsp; PROJECT: Публикация в открытых источниках" style="text;html=1;align=center;verticalAlign=middle;resizable=0;points=[];autosize=1;strokeColor=none;fillColor=none;" parent="1" vertex="1">
          <mxGeometry x="-180" y="-52" width="540" height="30" as="geometry" />
        </mxCell>
        <mxCell id="XXbPpaF_I5bskj_yStH1-20" value="&amp;nbsp; &amp;nbsp; &amp;nbsp; &amp;nbsp; &amp;nbsp; &amp;nbsp; &amp;nbsp; &amp;nbsp; &amp;nbsp; &amp;nbsp; &amp;nbsp; &amp;nbsp; &amp;nbsp; &amp;nbsp; &amp;nbsp; &amp;nbsp; &amp;nbsp; &amp;nbsp; &amp;nbsp;NOTES: 1 2 3 4 5 6 7 8 9 10" style="text;html=1;align=center;verticalAlign=middle;resizable=0;points=[];autosize=1;strokeColor=none;fillColor=none;" parent="1" vertex="1">
          <mxGeometry x="-45" y="-30" width="300" height="30" as="geometry" />
        </mxCell>
        <mxCell id="XXbPpaF_I5bskj_yStH1-21" value="" style="endArrow=none;html=1;rounded=0;" parent="1" edge="1">
          <mxGeometry width="50" height="50" relative="1" as="geometry">
            <mxPoint x="480" as="sourcePoint" />
            <mxPoint x="480" y="-80" as="targetPoint" />
          </mxGeometry>
        </mxCell>
        <mxCell id="XXbPpaF_I5bskj_yStH1-22" value="DATE: 4/15/2019" style="text;html=1;align=center;verticalAlign=middle;resizable=0;points=[];autosize=1;strokeColor=none;fillColor=none;" parent="1" vertex="1">
          <mxGeometry x="360" y="-80" width="110" height="30" as="geometry" />
        </mxCell>
        <mxCell id="XXbPpaF_I5bskj_yStH1-23" value="&amp;nbsp; &amp;nbsp; &amp;nbsp; &amp;nbsp; &amp;nbsp; &amp;nbsp; &amp;nbsp; &amp;nbsp; &amp;nbsp; &amp;nbsp; &amp;nbsp; &amp;nbsp; &amp;nbsp;REV:&amp;nbsp; 4/28/2019&amp;nbsp; &amp;nbsp;&amp;nbsp;" style="text;html=1;align=center;verticalAlign=middle;resizable=0;points=[];autosize=1;strokeColor=none;fillColor=none;" parent="1" vertex="1">
          <mxGeometry x="275" y="-60" width="210" height="30" as="geometry" />
        </mxCell>
        <mxCell id="XXbPpaF_I5bskj_yStH1-26" value="" style="endArrow=none;html=1;rounded=0;" parent="1" edge="1">
          <mxGeometry width="50" height="50" relative="1" as="geometry">
            <mxPoint x="510" as="sourcePoint" />
            <mxPoint x="510" y="-80" as="targetPoint" />
          </mxGeometry>
        </mxCell>
        <mxCell id="XXbPpaF_I5bskj_yStH1-27" value="" style="endArrow=none;html=1;rounded=0;" parent="1" edge="1">
          <mxGeometry width="50" height="50" relative="1" as="geometry">
            <mxPoint x="480" y="-60" as="sourcePoint" />
            <mxPoint x="510" y="-60" as="targetPoint" />
          </mxGeometry>
        </mxCell>
        <mxCell id="XXbPpaF_I5bskj_yStH1-28" value="" style="endArrow=none;html=1;rounded=0;entryX=0.333;entryY=0.767;entryDx=0;entryDy=0;entryPerimeter=0;" parent="1" target="XXbPpaF_I5bskj_yStH1-31" edge="1">
          <mxGeometry width="50" height="50" relative="1" as="geometry">
            <mxPoint x="480" y="-37.5" as="sourcePoint" />
            <mxPoint x="940" y="-37" as="targetPoint" />
          </mxGeometry>
        </mxCell>
        <mxCell id="XXbPpaF_I5bskj_yStH1-29" value="" style="endArrow=none;html=1;rounded=0;" parent="1" edge="1">
          <mxGeometry width="50" height="50" relative="1" as="geometry">
            <mxPoint x="480" y="-15.5" as="sourcePoint" />
            <mxPoint x="840" y="-15.5" as="targetPoint" />
          </mxGeometry>
        </mxCell>
        <mxCell id="XXbPpaF_I5bskj_yStH1-30" value="" style="endArrow=none;html=1;rounded=0;" parent="1" edge="1">
          <mxGeometry width="50" height="50" relative="1" as="geometry">
            <mxPoint x="840" as="sourcePoint" />
            <mxPoint x="840" y="-78" as="targetPoint" />
          </mxGeometry>
        </mxCell>
        <mxCell id="XXbPpaF_I5bskj_yStH1-31" value="&amp;nbsp; &amp;nbsp; TOP&amp;nbsp;" style="text;html=1;align=center;verticalAlign=middle;resizable=0;points=[];autosize=1;strokeColor=none;fillColor=none;" parent="1" vertex="1">
          <mxGeometry x="820" y="-60" width="60" height="30" as="geometry" />
        </mxCell>
        <mxCell id="XXbPpaF_I5bskj_yStH1-32" value="&amp;nbsp; &amp;nbsp; &amp;nbsp; &amp;nbsp; &amp;nbsp; &amp;nbsp; &amp;nbsp; CONTEXT:" style="text;html=1;align=center;verticalAlign=middle;resizable=0;points=[];autosize=1;strokeColor=none;fillColor=none;" parent="1" vertex="1">
          <mxGeometry x="785" y="-82" width="130" height="30" as="geometry" />
        </mxCell>
        <mxCell id="XXbPpaF_I5bskj_yStH1-33" value="" style="endArrow=none;html=1;rounded=0;" parent="1" edge="1">
          <mxGeometry width="50" height="50" relative="1" as="geometry">
            <mxPoint x="680" as="sourcePoint" />
            <mxPoint x="680" y="-80" as="targetPoint" />
          </mxGeometry>
        </mxCell>
        <mxCell id="XXbPpaF_I5bskj_yStH1-34" value="" style="endArrow=none;html=1;rounded=0;" parent="1" edge="1">
          <mxGeometry width="50" height="50" relative="1" as="geometry">
            <mxPoint x="510" y="-60" as="sourcePoint" />
            <mxPoint x="840" y="-60" as="targetPoint" />
          </mxGeometry>
        </mxCell>
        <mxCell id="XXbPpaF_I5bskj_yStH1-35" value="WORKING" style="text;html=1;align=center;verticalAlign=middle;resizable=0;points=[];autosize=1;strokeColor=none;fillColor=none;" parent="1" vertex="1">
          <mxGeometry x="510" y="-80" width="80" height="30" as="geometry" />
        </mxCell>
        <mxCell id="XXbPpaF_I5bskj_yStH1-37" value="DRAFT" style="text;html=1;align=center;verticalAlign=middle;resizable=0;points=[];autosize=1;strokeColor=none;fillColor=none;" parent="1" vertex="1">
          <mxGeometry x="510" y="-60" width="60" height="30" as="geometry" />
        </mxCell>
        <mxCell id="XXbPpaF_I5bskj_yStH1-38" value="RECOMMENDED" style="text;html=1;align=center;verticalAlign=middle;resizable=0;points=[];autosize=1;strokeColor=none;fillColor=none;" parent="1" vertex="1">
          <mxGeometry x="510" y="-40" width="120" height="30" as="geometry" />
        </mxCell>
        <mxCell id="XXbPpaF_I5bskj_yStH1-39" value="READER" style="text;html=1;align=center;verticalAlign=middle;resizable=0;points=[];autosize=1;strokeColor=none;fillColor=none;" parent="1" vertex="1">
          <mxGeometry x="680" y="-82" width="70" height="30" as="geometry" />
        </mxCell>
        <mxCell id="XXbPpaF_I5bskj_yStH1-40" value="DATE" style="text;html=1;strokeColor=none;fillColor=none;align=center;verticalAlign=middle;whiteSpace=wrap;rounded=0;" parent="1" vertex="1">
          <mxGeometry x="780" y="-82" width="60" height="30" as="geometry" />
        </mxCell>
        <mxCell id="XXbPpaF_I5bskj_yStH1-44" value="" style="endArrow=none;html=1;rounded=0;entryX=0.999;entryY=0.933;entryDx=0;entryDy=0;entryPerimeter=0;exitX=0.001;exitY=0.931;exitDx=0;exitDy=0;exitPerimeter=0;" parent="1" source="XXbPpaF_I5bskj_yStH1-11" target="XXbPpaF_I5bskj_yStH1-11" edge="1">
          <mxGeometry width="50" height="50" relative="1" as="geometry">
            <mxPoint x="380" y="900" as="sourcePoint" />
            <mxPoint x="430" y="850" as="targetPoint" />
          </mxGeometry>
        </mxCell>
        <mxCell id="XXbPpaF_I5bskj_yStH1-45" value="PUBLICATION" style="text;html=1;align=center;verticalAlign=middle;resizable=0;points=[];autosize=1;strokeColor=none;fillColor=none;" parent="1" vertex="1">
          <mxGeometry x="510" y="-22" width="100" height="30" as="geometry" />
        </mxCell>
        <mxCell id="XXbPpaF_I5bskj_yStH1-51" value="" style="rounded=0;whiteSpace=wrap;html=1;fillColor=#fff2cc;rotation=0;strokeColor=#d6b656;gradientColor=#ffd966;" parent="1" vertex="1">
          <mxGeometry x="480" y="-15" width="30" height="15" as="geometry" />
        </mxCell>
        <mxCell id="XXbPpaF_I5bskj_yStH1-81" value="&amp;nbsp; &amp;nbsp; &amp;nbsp; &amp;nbsp; &amp;nbsp; &amp;nbsp; оформил заявку" style="text;html=1;align=center;verticalAlign=middle;resizable=0;points=[];autosize=1;strokeColor=none;fillColor=none;" parent="1" vertex="1">
          <mxGeometry x="-90" y="218" width="160" height="30" as="geometry" />
        </mxCell>
        <mxCell id="XXbPpaF_I5bskj_yStH1-89" value="ПО" style="text;html=1;align=center;verticalAlign=middle;resizable=0;points=[];autosize=1;strokeColor=none;fillColor=none;" parent="1" vertex="1">
          <mxGeometry x="370" y="498" width="40" height="30" as="geometry" />
        </mxCell>
        <mxCell id="XXbPpaF_I5bskj_yStH1-91" value="Библиотекари" style="text;html=1;align=center;verticalAlign=middle;resizable=0;points=[];autosize=1;strokeColor=none;fillColor=none;" parent="1" vertex="1">
          <mxGeometry x="210" y="498" width="100" height="30" as="geometry" />
        </mxCell>
        <mxCell id="XXbPpaF_I5bskj_yStH1-106" value="&amp;nbsp; &amp;nbsp; &amp;nbsp; &amp;nbsp;орфография" style="text;html=1;align=center;verticalAlign=middle;resizable=0;points=[];autosize=1;strokeColor=none;fillColor=none;" parent="1" vertex="1">
          <mxGeometry x="170" y="58" width="120" height="30" as="geometry" />
        </mxCell>
      </root>
    </mxGraphModel>
  </diagram>
</mxfile>
